<?xml version="1.0" encoding="utf-8"?>
<!-- Generator: Adobe Illustrator 16.0.0, SVG Export Plug-In . SVG Version: 6.00 Build 0)  -->
<!DOCTYPE svg PUBLIC "-//W3C//DTD SVG 1.1//EN" "http://www.w3.org/Graphics/SVG/1.1/DTD/svg11.dtd">
<svg version="1.1" id="Calque_1" xmlns="http://www.w3.org/2000/svg" xmlns:xlink="http://www.w3.org/1999/xlink" x="0px" y="0px"
	 width="435.041px" height="292.382px" viewBox="66.794 111.809 435.041 292.382"
	 enable-background="new 66.794 111.809 435.041 292.382" xml:space="preserve">
<g id="iphone">
</g>
<path fill="#212328" d="M490.068,111.809H78.56v0.001c-6.471,0-11.766,5.294-11.766,11.766v268.849
	c0,6.472,5.295,11.767,11.766,11.767h411.508c6.471,0,11.767-5.295,11.767-11.767v-268.85
	C501.834,117.104,496.538,111.809,490.068,111.809z M207.256,324.081l65.104,22.271l-72.458,26.371L147.202,227.92l88.421-32.18
	l-37.518,109.679C195.489,313.064,199.606,321.465,207.256,324.081z M247.419,316.619c0.734-2.145,3.074-3.296,5.218-2.562
	l14.796,5.062c2.153,0.736,3.297,3.079,2.563,5.224c-0.735,2.149-3.073,3.3-5.228,2.562l-14.796-5.062
	C247.829,321.109,246.684,318.77,247.419,316.619z M223.439,288.393l44.187-129.175l82.805,28.325l-44.187,129.175L223.439,288.393z
	 M369.174,189.792c2.615-7.647-1.503-16.047-9.149-18.664l-29.271-10.012l37.992-13.827l52.7,144.802l-99.675,36.276
	L369.174,189.792z M87.288,132.123h264.495l-51.252,18.654l-30.434-10.41c-7.648-2.616-16.049,1.502-18.665,9.149l-7.475,21.851
	l-102.67,37.368c-11.562,4.206-17.522,16.987-13.312,28.547l51.174,140.6c0.805,2.216,1.927,4.222,3.292,5.993H87.288V132.123z
	 M481.339,383.876H227.83l199.508-72.612c11.561-4.211,17.521-16.992,13.312-28.554l-51.178-140.602
	c-1.493-4.104-4.07-7.497-7.285-9.985h99.151V383.876L481.339,383.876z"/>
</svg>
